<?xml version="1.0" encoding="utf-8"?>
<!-- Generator: Adobe Illustrator 23.0.3, SVG Export Plug-In . SVG Version: 6.00 Build 0)  -->
<svg version="1.1" id="Layer_1" xmlns="http://www.w3.org/2000/svg" xmlns:xlink="http://www.w3.org/1999/xlink" x="0px" y="0px"
	 viewBox="0 0 933.3 933.3" style="enable-background:new 0 0 933.3 933.3;" xml:space="preserve">
<style type="text/css">
	.st0{fill:#FF0000;}
	.st1{fill:#E1BFAE;}
	.st2{fill:#C9A197;}
	.st3{fill:#F4E2DF;}
</style>
<g>
	<path class="st0" d="M851.6,513c0.3-21.5-3.2-58.1-8.8-93.3c-10.6-66.6-20.8-81.1-25.1-87.3c-1.8-2.7-3.5-5-4.9-7.1
		c5.6-17.6,8.6-36.3,8.6-55.8C821.4,167.6,738.8,85,636.9,85c-41.6,0-80.1,13.8-110.9,37.1c-15.9-5.4-30.9-10.4-44.5-12.7
		c-4.8-0.8-9.6-1.2-14.5-1.2c-30.1,0-53,16-69.7,27.7c-9.4,6.6-18.2,12.7-26,15c-10.8,3.1-20.7,5.5-29.3,7.7
		c-21.7,5.3-42.2,10.3-62.5,23.1c-5.9,3.7-11.5,8.1-16.9,12.8c-10.4-2.8-21.3-4.4-32.6-4.4c-68.2,0-123.5,55.3-123.5,123.5
		c0,7.7,0.7,15.3,2.1,22.6c-4.3,9.4-8.2,19.7-11.7,30.1C71.1,394,55.4,431.2,55.4,472c0,57.5,31.1,107.7,77.4,134.8
		c8.2,23.4,22.4,56.9,42.1,78.7c17.2,19.2,35.5,25.8,48.8,30.6c5.6,2,10,3.6,15.1,6.3c12.9,6.6,27,10,42,10
		c32.3,0,59.4-15.8,69.6-21.7c1.1-0.6,2.2-1.3,3.3-2c7.8,3.2,15.7,5.5,23.5,7c8.1,1.5,16.9,2.3,26.1,2.3c6.3,0,12.6-0.4,18.7-1
		c1.5,5.3,3.6,10.7,6.5,16.1c19.9,37,51.3,61.2,89.1,69c33.5,32.2,79,52,129.2,52c103,0,186.5-83.5,186.5-186.5
		c0-27.1-5.8-52.9-16.2-76.2c14.4-14.5,29-32.8,33.1-59.9C851,526.1,851.5,520.1,851.6,513z"/>
	<circle class="st0" cx="246.4" cy="146" r="15"/>
	<circle class="st0" cx="310.4" cy="114" r="27"/>
	<circle class="st0" cx="245.4" cy="91" r="10"/>
	<circle class="st0" cx="872.4" cy="606" r="21"/>
	<circle class="st0" cx="872.9" cy="665.5" r="10.5"/>
	<circle class="st0" cx="374.4" cy="775" r="34"/>
	<circle class="st0" cx="308.9" cy="775.5" r="10.5"/>
	<circle class="st0" cx="93.9" cy="637.5" r="17.5"/>
	<circle class="st0" cx="53.9" cy="336.5" r="18.5"/>
</g>
<g>
	<path d="M610.2,757.8c10.4-2,20.3-3.9,28.9-4.8c13.9-1.4,28.1-0.9,40.7-0.5c13.4,0.5,24.9,0.9,34.1-1c17.8-3.6,39.9-11.9,52.6-44.5
		c9.3-24,10.4-45.7,10.6-65.9c0-2.2,0-4.4,0.1-6.7c0-2.2,0-4.4,0.1-6.6c0.1-9.1-0.8-22.1-2.8-38.8l-1.3-11c2.1-2.1,4.3-4.1,6.4-6.1
		c14.5-13.7,28.2-26.6,31.2-46.6c0.5-3.5,0.8-7.8,0.9-13c0.5-39.6-13.7-138.7-26.7-157.3c-4.9-7.1-18-25.8-19.9-32.9
		c-0.2-0.8-0.6-3.7-0.9-5.9c-2.1-14.9-6.4-46-26.2-79.1c-29.4-48.9-59.5-73.9-89.5-74.3c-9.5-0.1-32.8,3.8-75.4,12.7
		c-8.6,1.8-36-7.7-54.2-13.9c-16.5-5.7-32-11-44.1-13.1c-20.9-3.6-38,8.3-54.4,19.8c-11.6,8.1-23.7,16.5-37.8,20.6
		c-11.6,3.4-21.9,5.9-31,8.1c-20.1,4.9-35.9,8.8-50.7,18.1c-15.5,9.7-30.9,28-45.8,45.8c-5.5,6.6-10.7,12.8-15.7,18.2
		c-6.4,7-19.1,13-32.5,19.3c-18.6,8.8-39.6,18.7-51.6,35.5c-20,28-35.9,96.1-36.1,115.2c-0.2,16.5,7.9,35.2,25.4,58.6
		c5.5,7.3,10.1,26.7,14.2,43.8c2.6,10.7,5.2,21.8,8.4,31.6c3.9,12.3,18.2,54,37.5,75.5c10.5,11.7,21.3,15.6,32.7,19.7
		c6.1,2.2,12.4,4.5,19.8,8.3c29,15,62.2-4.4,73.1-10.7c5.9-3.5,11.1-9.3,15.2-17.3c9.8,6.8,23.7,14.6,39.1,17.4
		c25.3,4.7,57.3-1.8,74.8-9.1c0,0.4,0,0.9-0.1,1.3c0,3.4-0.2,6.7-0.4,10c-0.2,3.2-0.3,6.3-0.3,9.4c0,0,0,0,0,0
		c-0.1,8,0.4,17.4,5.1,26.2c19.6,36.3,48,47.2,68.5,50C559.4,767.6,586.4,762.4,610.2,757.8z"/>
	<path class="st1" d="M316.7,650.9c5.4-3.1,9.4-20,3-37.6c-11.8-32.4-24.7-73.8-31.8-131.8c-7.1-58-20.3-68.2-15.6-84.8
		C277,380,291,419.1,291,419.1s-2.3-82.4,16.6-82.2s-6.6,84.6,5.9,152.6c12.5,68.1,26.5,107.2,34.1,121.8
		c4.3,8.2,10.7,14.9,22.9,25.1c12.2,10.2,28.3,10.3,38.3,10.8c26,1.2,45.2-11.4,51.8-36.8c0-0.1,3.4-51.1-4.9-96.9
		c-8.3-45.8-31.2-88.4-27.5-119.5s17.5-59.9,24.1-59.8c6.7,0.1,0.5,51.2,1.4,69.1c0.9,17.8,15.9,61.4,24,125s16.8,77.2,16.8,77.2
		s10.9,14.9,30.9,19.6c30,7.1,34.7,4.1,59.4-7.9c8.9-4.3,20.6-20.2,25.6-27.7c0,0,11.5-8.4,15.6-34.5s5.7-50.5,3.9-81.7
		s-16.7-87.1-29.7-118.4c-13-31.3-16.4-26.9-16.2-38.1s15.5,3.5,17.7,11.4c2.1,7.8,10.4-29.9,17.1-29.9c6.7,0.1,0.6,43.4,4.8,58
		c4.3,14.5,24.6,81.6,27.5,116.2c2.3,27.2,3.3,77.2,6.6,98.1c1,6.7,9.8,15.7,24.2,20.4c16.2,5.2,48.7-11.3,63.6-30.7
		c20.4-26.5,34.6-26.1,38.3-50.5c4.5-30.5-5.8-124.5-16.8-140.2c-10.9-15.7-19.7-36.7-21.8-44.5c-2.1-7.8,4-42.8-18.9-80.9
		s-50.4-67.5-78.2-67.8c-11.6-0.1-52.4,8.2-72.5,12.5c-20.1,4.2-75.4-22.1-103.2-26.9c-27.8-4.8-49.4,29.4-86.3,40.1
		s-59.2,12.6-78.3,24.6c-19.1,12-40.6,41.8-58.7,61.6s-64.9,28.1-83.1,53.5s-33.4,90.9-33.6,107.6c-0.2,16.7,16.3,33.6,27.2,48.2
		c11,14.6,17.1,53.7,25.7,80.5c8.6,26.8,26,57.1,39.2,71.8s16.6,6.9,38.7,18.3C285.5,679.7,305.5,657.5,316.7,650.9z"/>
	<path class="st2" d="M456.4,192.9c-17.8-0.2-45.7,5-66,21.4s67.4,92.5,85.2,92.7C493.4,307.3,474.2,193.2,456.4,192.9z"/>
	<path class="st2" d="M617.9,195c-13.3-4.6-41.2,1.7-50.2,10.5c-9,8.8,46.1,57.4,55,57.5S631.2,199.6,617.9,195z"/>
	<path class="st2" d="M299.8,247.8c15.7-12.1,36.9,53,23.5,59.5c-13.4,6.5-40.7-17.4-45-27.5C273.9,269.7,284.1,259.8,299.8,247.8z"
		/>
	<path class="st1" d="M653.6,720.4c4.6,1.4,10.8,4.5,17,4.8c14.3,0.7,16.7-2.7,32-5.5c17.3-3.1,27-7.7,34.3-17.5
		s13.4-26.8,11.9-45.9c-1.2-15.2-4.1-25.4-19-33.5c-14.9-8.1-36.8,6.7-55.1,2.8c-9-1.9-28.8,4.4-37.4,7.5
		c-11.6,4.1-16.4,4-33.6,12.3c-23.4,11.3-52.2,21.8-88.1,13.3c-14.2-3.3-24.4-8.7-31.5-14c-0.2,0.3-0.5,0.7-0.7,1
		c-0.6,0.8-1.1,1.7-1.7,2.5c-5,7.5-8.9,15-8.9,20.3c-0.2,15.6-2.6,28.9,2.9,39c5.4,10.1,21.8,31.3,58.5,36.2
		c30.2,4,52.8,0.3,87.5-14.8C635.4,723,640,716.3,653.6,720.4z"/>
	<path class="st3" d="M601.2,723.7c18.2-12.8,34-47.5,1.9-61.2c-7.3-3.1-14.3-5.7-21-7.8c-19,6.6-40.9,10.2-66.4,4.2
		c-2.8-0.7-5.4-1.4-8-2.2c-12.2,8.9-18.4,27.8-17.5,46.8s7.3,32.5,19.4,39.3C527.3,746.3,573.1,743.4,601.2,723.7z"/>
</g>
</svg>
